<?xml version="1.0" encoding="utf-8"?>
<!-- Generator: Adobe Illustrator 23.0.6, SVG Export Plug-In . SVG Version: 6.00 Build 0)  -->
<svg version="1.1" id="Layer_1" xmlns="http://www.w3.org/2000/svg" xmlns:xlink="http://www.w3.org/1999/xlink" x="0px" y="0px"
	 viewBox="0 0 300 82" style="enable-background:new 0 0 300 82;" xml:space="preserve">
<style type="text/css">
	.st0{fill:#FFFFFF;}
</style>
<g>
	<g>
		<g>
			<path class="st0" d="M25.9,1.7l12.6,0L41,33.8L70.7,1.6l14.1,0L60.3,56.6l-14.8,0l9.7-22l-15.9,16l-11.7,0L26,34.9l-9.7,21.9
				l-14.8,0L25.9,1.7z"/>
			<path class="st0" d="M110.9,43.2c0.4,0,0.7-0.2,0.8-0.6l2.6-5.7l14.8,0l-5.4,12.3c-0.9,2-2.4,3.8-4.4,5.2
				c-2.1,1.4-4.1,2.1-6.1,2.2l-31.6,0.1c-3.5,0-5.9-1.2-7.2-3.6c-1.3-2.4-1.2-5.4,0.4-8.9l13.3-30c1.5-3.5,3.7-6.5,6.4-8.9
				c2.7-2.4,5.8-3.6,9.3-3.7l33.9-0.1c2,0,3.4,0.7,4.2,2.1c0.8,1.4,0.7,3.2-0.2,5.2l-5.4,12.3l-14.8,0l2.5-5.7
				c0.2-0.4,0.1-0.6-0.3-0.6l-20,0.1c-0.7,0-1.1,0.3-1.5,1L90.4,42.3c-0.3,0.7-0.1,1,0.6,1L110.9,43.2z"/>
			<path class="st0" d="M193.1,56.3l18.5-41.8l-18.3,0.1l5.9-13.3l51.5-0.1l-5.9,13.3l-18.3,0.1l-18.5,41.8L193.1,56.3z"/>
			<path class="st0" d="M251.7,38.7l-1.4,3.1c-0.3,0.7-0.1,1,0.6,1l18.1,0c0.7,0,1.1-0.3,1.4-1l2.7-6.1c0.3-0.7,0.1-1-0.5-1
				l-21.5,0.1c-3.5,0-5.9-1.2-7.2-3.6c-1.3-2.4-1.2-5.4,0.4-8.9l3.8-8.6c1.5-3.5,3.8-6.5,6.8-8.9c3-2.4,6.2-3.6,9.7-3.7L290.9,1
				c3.5,0,5.9,1.2,7.2,3.6c1.3,2.4,1.2,5.4-0.4,8.9l-2.2,4.9l-14.8,0l1.4-3.1c0.3-0.7,0.1-1-0.5-1l-18.1,0c-0.7,0-1.1,0.3-1.5,1
				l-2.7,6.1c-0.3,0.7-0.1,1,0.6,1l21.5-0.1c3.5,0,5.9,1.2,7.2,3.6c1.3,2.4,1.2,5.4-0.4,8.9l-3.8,8.6c-1.6,3.5-3.8,6.5-6.6,8.9
				c-2.8,2.4-6,3.6-9.5,3.7l-26.8,0.1c-3.5,0-5.9-1.2-7.2-3.6c-1.3-2.4-1.2-5.4,0.4-8.9l2.2-4.9L251.7,38.7z"/>
		</g>
		<g>
			<g>
				<path class="st0" d="M155.1,33.8c-0.5,4.2,0.3,7.7,2.4,10.4c2.1,2.7,5.5,4.1,10,4.1c2.4,0,4.9-0.5,7.4-1.5
					c2.5-1,4.6-2.5,6.5-4.4l2.2,2.6c-3.1,3-6.6,5.3-10.4,6.9c-3.8,1.6-7.8,2.4-11.7,2.5c-3.4,0-6.4-0.5-9-1.4
					c-2.6-1-4.8-2.3-6.5-4.1c-1.7-1.8-3-3.9-3.7-6.5c-0.7-2.5-0.9-5.3-0.5-8.4s1.3-5.9,2.6-8.4c1.4-2.5,3.1-4.7,5.3-6.5
					c2.2-1.8,4.7-3.2,7.6-4.2c2.8-1,6-1.5,9.4-1.5c3.4,0,6.2,0.5,8.7,1.5c2.4,1,4.4,2.5,5.9,4.3c1.5,1.8,2.6,4,3.3,6.5
					c0.7,2.5,1,5.1,0.9,8L155.1,33.8z M168.9,29.9c1.4,0,2.4-0.2,2.9-0.5c0.5-0.3,0.9-1.1,1-2.3c0.4-3,0.1-5.3-1-7.2
					c-1-1.8-3.1-2.7-6.2-2.7c-1.6,0-3,0.4-4.2,1.3c-1.2,0.8-2.2,1.9-3,3.2c-0.8,1.3-1.5,2.7-1.9,4.1c-0.5,1.5-0.8,2.9-0.9,4.1
					L168.9,29.9z"/>
			</g>
		</g>
	</g>
	<g>
		<path class="st0" d="M1,80.8V65.7h2.7l5.1,13.4l5.1-13.4h2.7v15.1H15V67.1L9.9,80.8h-2L2.7,67.1v13.7H1z"/>
		<path class="st0" d="M24,80.9c-1.6,0-2.7-0.3-3.3-0.9c-0.6-0.6-0.9-1.7-0.9-3.3v-2.5c0-1.6,0.3-2.7,0.9-3.3
			c0.6-0.6,1.7-0.9,3.3-0.9h0.7c1.6,0,2.7,0.3,3.3,0.9c0.6,0.6,0.9,1.7,0.9,3.3v2.5c0,1.6-0.3,2.7-0.9,3.3c-0.6,0.6-1.7,0.9-3.3,0.9
			H24z M27.3,76.4v-1.8c0-1.3-0.2-2.2-0.5-2.6c-0.3-0.4-1.1-0.6-2.1-0.6h-0.7c-1.1,0-1.8,0.2-2.1,0.5c-0.3,0.4-0.5,1.2-0.5,2.6v1.8
			c0,1.4,0.2,2.2,0.5,2.6c0.3,0.4,1,0.5,2.1,0.5h0.7c1.1,0,1.8-0.2,2.1-0.6C27.2,78.6,27.3,77.7,27.3,76.4z"/>
		<path class="st0" d="M30.7,71.5v-1.3H32v-2.4h1.6v2.4h5.2v1.3h-5.2v5.9c0,0.8,0.1,1.4,0.4,1.7c0.3,0.3,0.8,0.5,1.6,0.5
			c0.8,0,1.3-0.1,1.5-0.4c0.3-0.3,0.4-0.9,0.4-1.7V77h1.6v0.1c0,1.5-0.2,2.5-0.7,3c-0.5,0.5-1.5,0.8-3.1,0.8c-1.2,0-2.1-0.3-2.5-0.8
			c-0.5-0.5-0.7-1.5-0.7-3v-5.6H30.7z"/>
		<path class="st0" d="M45.8,80.9c-1.6,0-2.7-0.3-3.3-0.9c-0.6-0.6-0.9-1.7-0.9-3.3v-2.5c0-1.6,0.3-2.7,0.9-3.3
			c0.6-0.6,1.7-0.9,3.3-0.9h0.7c1.6,0,2.7,0.3,3.3,0.9c0.6,0.6,0.9,1.7,0.9,3.3v2.5c0,1.6-0.3,2.7-0.9,3.3c-0.6,0.6-1.7,0.9-3.3,0.9
			H45.8z M49.1,76.4v-1.8c0-1.3-0.2-2.2-0.5-2.6c-0.3-0.4-1.1-0.6-2.1-0.6h-0.7c-1.1,0-1.8,0.2-2.1,0.5c-0.3,0.4-0.5,1.2-0.5,2.6
			v1.8c0,1.4,0.2,2.2,0.5,2.6c0.3,0.4,1,0.5,2.1,0.5h0.7c1.1,0,1.8-0.2,2.1-0.6C49,78.6,49.1,77.7,49.1,76.4z"/>
		<path class="st0" d="M53.6,80.8V70.1h1.5v1.5c0.2-0.6,0.6-1,1-1.2c0.5-0.3,1.1-0.4,1.9-0.4c1.2,0,2,0.3,2.4,0.8
			c0.5,0.6,0.7,1.6,0.7,3v0.1h-1.6v-0.3c0-0.8-0.1-1.4-0.4-1.7c-0.3-0.3-0.8-0.4-1.5-0.4c-0.9,0-1.5,0.2-1.9,0.7
			c-0.4,0.5-0.6,1.3-0.6,2.4v6.2H53.6z"/>
		<path class="st0" d="M62.9,70.7c0-1.9,0.4-3.3,1.1-4c0.7-0.8,2-1.1,3.9-1.1h1.8c1.8,0,3.1,0.3,3.9,1c0.7,0.7,1.1,1.8,1.1,3.3v0.7
			H73v-0.4c0-1.1-0.2-1.9-0.7-2.3c-0.5-0.4-1.4-0.6-2.7-0.6h-1.2c-0.9,0-1.6,0.1-2,0.2c-0.4,0.1-0.8,0.3-1,0.6
			c-0.3,0.3-0.5,0.6-0.6,1c-0.1,0.4-0.2,1.2-0.2,2.3v4.3c0,1.1,0.1,1.8,0.2,2.3c0.1,0.4,0.3,0.7,0.6,1c0.3,0.3,0.6,0.4,1,0.6
			c0.4,0.1,1.1,0.2,2,0.2h1.2c1.4,0,2.3-0.2,2.8-0.7c0.5-0.4,0.7-1.3,0.7-2.5c0-0.2,0-0.3,0-0.4c0-0.1,0-0.2,0-0.3h1.7v1
			c0,1.7-0.4,2.8-1.1,3.5c-0.7,0.7-2,1-3.9,1h-1.8c-1.9,0-3.2-0.4-3.9-1.1c-0.7-0.8-1.1-2.1-1.1-4V70.7z"/>
		<path class="st0" d="M81.1,80.9c-1.6,0-2.7-0.3-3.3-0.9c-0.6-0.6-0.9-1.7-0.9-3.3v-2.5c0-1.6,0.3-2.7,0.9-3.3
			c0.6-0.6,1.7-0.9,3.3-0.9h0.7c1.6,0,2.7,0.3,3.3,0.9c0.6,0.6,0.9,1.7,0.9,3.3v2.5c0,1.6-0.3,2.7-0.9,3.3c-0.6,0.6-1.7,0.9-3.3,0.9
			H81.1z M84.5,76.4v-1.8c0-1.3-0.2-2.2-0.5-2.6c-0.3-0.4-1.1-0.6-2.1-0.6h-0.7c-1.1,0-1.8,0.2-2.1,0.5c-0.3,0.4-0.5,1.2-0.5,2.6
			v1.8c0,1.4,0.2,2.2,0.5,2.6c0.3,0.4,1,0.5,2.1,0.5h0.7c1.1,0,1.8-0.2,2.1-0.6C84.3,78.6,84.5,77.7,84.5,76.4z"/>
		<path class="st0" d="M96,79.7c-0.2,0.4-0.6,0.8-1.2,1c-0.5,0.2-1.3,0.3-2.2,0.3c-1.7,0-2.8-0.2-3.3-0.7c-0.6-0.5-0.8-1.4-0.8-2.7
			c0-0.7,0.1-1.3,0.2-1.8c0.1-0.4,0.3-0.8,0.6-1c0.3-0.2,0.6-0.4,1.1-0.5c0.5-0.1,1.2-0.1,2.1-0.1c1,0,1.7,0.1,2.2,0.2
			c0.5,0.2,0.9,0.4,1.1,0.8v-1.8c0-0.9-0.2-1.4-0.5-1.7c-0.3-0.3-1.2-0.4-2.5-0.4c-1,0-1.6,0.1-2,0.3c-0.3,0.2-0.5,0.6-0.5,1.2h-1.6
			v-0.2c0-0.9,0.3-1.6,0.9-1.9s1.6-0.6,3-0.6c1.1,0,2,0,2.6,0.1c0.6,0.1,1,0.2,1.3,0.5c0.3,0.2,0.5,0.5,0.7,0.9
			c0.1,0.4,0.2,1,0.2,1.8v7.5H96L96,79.7z M95.9,78.1V77c0-0.5-0.3-0.9-0.8-1.1c-0.5-0.2-1.3-0.4-2.5-0.4c-1,0-1.7,0.1-2.1,0.4
			c-0.3,0.3-0.5,0.8-0.5,1.5c0,0.8,0.2,1.4,0.5,1.7c0.4,0.3,1.1,0.4,2.2,0.4c1,0,1.7-0.1,2.3-0.4C95.6,78.9,95.9,78.5,95.9,78.1z"/>
		<path class="st0" d="M104.4,80.9c-1.6,0-2.7-0.3-3.3-0.9c-0.6-0.6-0.9-1.7-0.9-3.3v-2.5c0-1.6,0.3-2.7,0.9-3.3
			c0.6-0.6,1.7-0.9,3.3-0.9h0.7c1.5,0,2.6,0.3,3.2,0.9c0.7,0.6,1,1.5,1,2.8l-1.6,0c0-0.9-0.2-1.5-0.6-1.8c-0.4-0.3-1-0.5-2.1-0.5
			h-0.7c-1.1,0-1.8,0.2-2.1,0.5c-0.3,0.4-0.5,1.2-0.5,2.6v1.8c0,1.4,0.2,2.2,0.5,2.6c0.3,0.4,1,0.5,2.1,0.5h0.7c1,0,1.7-0.2,2.1-0.5
			c0.4-0.4,0.5-1,0.5-1.9v-0.2h1.6v0.2c0,1.4-0.3,2.4-1,3c-0.7,0.6-1.7,0.9-3.3,0.9H104.4z"/>
		<path class="st0" d="M112.2,80.8V65.7h1.5v5.9c0.3-0.5,0.7-0.9,1.2-1.2c0.6-0.3,1.3-0.4,2.2-0.4c1.4,0,2.4,0.3,2.9,0.8
			c0.6,0.6,0.8,1.6,0.8,3v7h-1.6v-6.6c0-1.1-0.2-1.8-0.5-2.2c-0.3-0.4-1-0.5-1.9-0.5c-1.1,0-1.9,0.3-2.4,0.8
			c-0.5,0.5-0.8,1.3-0.8,2.4v6.2H112.2z"/>
		<path class="st0" d="M134.9,80.9c-1.6,0-2.7-0.3-3.3-0.9c-0.6-0.6-0.9-1.7-0.9-3.3v-2.5c0-1.6,0.3-2.7,0.9-3.3
			c0.6-0.6,1.7-0.9,3.3-0.9h0.7c1.6,0,2.7,0.3,3.3,0.9c0.6,0.6,0.9,1.7,0.9,3.3v1.6l-7.6,0c0,0.1,0,0.2,0,0.4c0,0.1,0,0.3,0,0.6
			c0,1.1,0.2,1.8,0.5,2.2c0.3,0.4,1.1,0.6,2.1,0.6h0.7c0.9,0,1.6-0.1,2-0.4c0.4-0.3,0.6-0.7,0.6-1.4h1.6c-0.1,1.2-0.4,2-1.1,2.5
			c-0.7,0.5-1.7,0.8-3.1,0.8H134.9z M132.3,74.4h6V74c0-1-0.2-1.7-0.5-2c-0.4-0.4-1.1-0.5-2.1-0.5h-0.7c-1,0-1.7,0.2-2.1,0.5
			c-0.3,0.4-0.5,1-0.5,2V74.4z"/>
		<path class="st0" d="M140.9,67.3v-1.6h11.2v1.6h-4.8v13.5h-1.7V67.3H140.9z"/>
		<path class="st0" d="M153.5,67.5v-1.8h1.6v1.8H153.5z M153.5,80.8V70.1h1.6v10.6H153.5z"/>
		<path class="st0" d="M162.1,80.9c-1.6,0-2.7-0.3-3.3-0.9c-0.6-0.6-0.9-1.7-0.9-3.3v-2.5c0-1.6,0.3-2.7,0.9-3.3
			c0.6-0.6,1.7-0.9,3.3-0.9h0.7c1.5,0,2.6,0.3,3.2,0.9c0.7,0.6,1,1.5,1,2.8l-1.6,0c0-0.9-0.2-1.5-0.6-1.8c-0.4-0.3-1-0.5-2.1-0.5
			h-0.7c-1.1,0-1.8,0.2-2.1,0.5c-0.3,0.4-0.5,1.2-0.5,2.6v1.8c0,1.4,0.2,2.2,0.5,2.6c0.3,0.4,1,0.5,2.1,0.5h0.7c1,0,1.7-0.2,2.1-0.5
			c0.4-0.4,0.5-1,0.5-1.9v-0.2h1.6v0.2c0,1.4-0.3,2.4-1,3c-0.7,0.6-1.7,0.9-3.3,0.9H162.1z"/>
		<path class="st0" d="M169.9,80.8V65.7h1.6v8.6h0.5l3.5-4.1h1.8l-4,4.7l4.8,5.9h-2l-4.1-5.1h-0.5v5.1H169.9z"/>
		<path class="st0" d="M183,80.9c-1.6,0-2.7-0.3-3.3-0.9c-0.6-0.6-0.9-1.7-0.9-3.3v-2.5c0-1.6,0.3-2.7,0.9-3.3
			c0.6-0.6,1.7-0.9,3.3-0.9h0.7c1.6,0,2.7,0.3,3.3,0.9c0.6,0.6,0.9,1.7,0.9,3.3v1.6l-7.6,0c0,0.1,0,0.2,0,0.4c0,0.1,0,0.3,0,0.6
			c0,1.1,0.2,1.8,0.5,2.2c0.3,0.4,1.1,0.6,2.1,0.6h0.7c0.9,0,1.6-0.1,2-0.4c0.4-0.3,0.6-0.7,0.6-1.4h1.6c-0.1,1.2-0.4,2-1.1,2.5
			c-0.7,0.5-1.7,0.8-3.1,0.8H183z M180.4,74.4h6V74c0-1-0.2-1.7-0.5-2c-0.4-0.4-1.1-0.5-2.1-0.5H183c-1,0-1.7,0.2-2.1,0.5
			c-0.3,0.4-0.5,1-0.5,2V74.4z"/>
		<path class="st0" d="M189.8,71.5v-1.3h1.3v-2.4h1.6v2.4h5.2v1.3h-5.2v5.9c0,0.8,0.1,1.4,0.4,1.7c0.3,0.3,0.8,0.5,1.6,0.5
			c0.8,0,1.3-0.1,1.5-0.4s0.4-0.9,0.4-1.7V77h1.6v0.1c0,1.5-0.2,2.5-0.7,3c-0.5,0.5-1.5,0.8-3.1,0.8c-1.2,0-2.1-0.3-2.5-0.8
			c-0.5-0.5-0.7-1.5-0.7-3v-5.6H189.8z"/>
		<path class="st0" d="M207.7,75.9h1.7v0.3c0,0.9,0.1,1.6,0.2,2c0.1,0.4,0.4,0.7,0.7,0.9c0.2,0.1,0.6,0.2,1.1,0.3
			c0.5,0.1,1.5,0.1,3.1,0.1c0.9,0,1.5-0.1,2-0.2c0.5-0.1,0.8-0.3,1-0.5c0.1-0.1,0.2-0.4,0.3-0.7c0.1-0.3,0.1-0.8,0.1-1.3
			c0-1.1-0.1-1.8-0.3-2.1c-0.2-0.3-0.7-0.5-1.3-0.5l-4.6-0.4c-1.4-0.1-2.3-0.5-2.9-1c-0.5-0.6-0.8-1.6-0.8-3c0-0.9,0.1-1.6,0.3-2.1
			s0.5-1,0.8-1.3c0.3-0.3,0.7-0.5,1.3-0.6c0.5-0.1,1.5-0.2,2.9-0.2h0.5c1.5,0,2.6,0.1,3.2,0.2c0.6,0.1,1.2,0.4,1.6,0.8
			c0.3,0.2,0.5,0.6,0.6,1c0.1,0.4,0.2,1,0.2,1.7c0,0.2,0,0.3,0,0.4c0,0.1,0,0.2,0,0.3h-1.7v-0.4c0-0.6,0-1-0.1-1.3
			c-0.1-0.3-0.2-0.5-0.3-0.7c-0.2-0.2-0.6-0.4-1.1-0.4s-1.5-0.1-3-0.1c-1.5,0-2.5,0.2-2.9,0.5c-0.4,0.4-0.6,1.1-0.6,2.1
			c0,0.9,0.1,1.5,0.4,1.8c0.3,0.3,0.8,0.5,1.5,0.6l4.7,0.4c1.2,0.1,2.1,0.5,2.6,1c0.5,0.6,0.7,1.5,0.7,2.9c0,1-0.1,1.7-0.2,2.2
			c-0.1,0.5-0.3,0.9-0.6,1.2c-0.4,0.4-0.9,0.7-1.5,0.9c-0.6,0.2-1.7,0.2-3.4,0.2h-0.7c-1.4,0-2.4-0.1-2.9-0.2
			c-0.6-0.1-1.1-0.4-1.4-0.7c-0.4-0.3-0.7-0.8-0.8-1.3c-0.2-0.6-0.3-1.3-0.3-2.1V75.9z"/>
		<path class="st0" d="M226.5,80.9c-1.6,0-2.7-0.3-3.3-0.9c-0.6-0.6-0.9-1.7-0.9-3.3v-2.5c0-1.6,0.3-2.7,0.9-3.3
			c0.6-0.6,1.7-0.9,3.3-0.9h0.7c1.6,0,2.7,0.3,3.3,0.9c0.6,0.6,0.9,1.7,0.9,3.3v2.5c0,1.6-0.3,2.7-0.9,3.3c-0.6,0.6-1.7,0.9-3.3,0.9
			H226.5z M229.8,76.4v-1.8c0-1.3-0.2-2.2-0.5-2.6c-0.3-0.4-1.1-0.6-2.1-0.6h-0.7c-1.1,0-1.8,0.2-2.1,0.5c-0.3,0.4-0.5,1.2-0.5,2.6
			v1.8c0,1.4,0.2,2.2,0.5,2.6c0.3,0.4,1,0.5,2.1,0.5h0.7c1.1,0,1.8-0.2,2.1-0.6C229.7,78.6,229.8,77.7,229.8,76.4z"/>
		<path class="st0" d="M234.3,80.8V65.7h1.6v15.1H234.3z"/>
		<path class="st0" d="M247.7,70.1v10.6h-1.5v-1.4c-0.2,0.5-0.7,0.9-1.2,1.2c-0.6,0.3-1.3,0.4-2.3,0.4c-1.4,0-2.4-0.3-2.9-0.8
			c-0.6-0.6-0.8-1.5-0.8-3v-7h1.6v6.7c0,1.1,0.2,1.8,0.5,2.2c0.3,0.4,1,0.5,1.9,0.5c1.1,0,1.9-0.3,2.4-0.8c0.5-0.5,0.8-1.3,0.8-2.4
			v-6.2H247.7z"/>
		<path class="st0" d="M249.9,71.5v-1.3h1.3v-2.4h1.6v2.4h5.2v1.3h-5.2v5.9c0,0.8,0.1,1.4,0.4,1.7c0.3,0.3,0.8,0.5,1.6,0.5
			c0.8,0,1.3-0.1,1.5-0.4s0.4-0.9,0.4-1.7V77h1.6v0.1c0,1.5-0.2,2.5-0.7,3c-0.5,0.5-1.5,0.8-3.1,0.8c-1.2,0-2.1-0.3-2.5-0.8
			c-0.5-0.5-0.7-1.5-0.7-3v-5.6H249.9z"/>
		<path class="st0" d="M261.2,67.5v-1.8h1.6v1.8H261.2z M261.2,80.8V70.1h1.6v10.6H261.2z"/>
		<path class="st0" d="M269.8,80.9c-1.6,0-2.7-0.3-3.3-0.9c-0.6-0.6-0.9-1.7-0.9-3.3v-2.5c0-1.6,0.3-2.7,0.9-3.3
			c0.6-0.6,1.7-0.9,3.3-0.9h0.7c1.6,0,2.7,0.3,3.3,0.9c0.6,0.6,0.9,1.7,0.9,3.3v2.5c0,1.6-0.3,2.7-0.9,3.3c-0.6,0.6-1.7,0.9-3.3,0.9
			H269.8z M273.2,76.4v-1.8c0-1.3-0.2-2.2-0.5-2.6c-0.3-0.4-1.1-0.6-2.1-0.6h-0.7c-1.1,0-1.8,0.2-2.1,0.5c-0.3,0.4-0.5,1.2-0.5,2.6
			v1.8c0,1.4,0.2,2.2,0.5,2.6c0.3,0.4,1,0.5,2.1,0.5h0.7c1.1,0,1.8-0.2,2.1-0.6C273,78.6,273.2,77.7,273.2,76.4z"/>
		<path class="st0" d="M277.6,80.8V70.1h1.5v1.5c0.3-0.5,0.7-0.9,1.2-1.2c0.6-0.3,1.3-0.4,2.2-0.4c1.4,0,2.4,0.3,2.9,0.8
			c0.6,0.6,0.8,1.6,0.8,3v7h-1.6v-6.6c0-1.1-0.2-1.8-0.5-2.2c-0.3-0.4-1-0.5-1.9-0.5c-1.1,0-1.9,0.3-2.4,0.8
			c-0.5,0.5-0.8,1.3-0.8,2.4v6.2H277.6z"/>
		<path class="st0" d="M289.1,77.6h1.6v0.2c0,0.7,0.2,1.1,0.6,1.4c0.4,0.2,1.2,0.4,2.4,0.4c1.4,0,2.2-0.1,2.5-0.4
			c0.3-0.2,0.5-0.7,0.5-1.4c0-0.7-0.1-1.2-0.4-1.4c-0.3-0.2-0.9-0.4-1.9-0.4c-0.4,0-0.9,0-1.5-0.1c-1.4,0-2.3-0.1-2.5-0.3
			c-0.4-0.2-0.7-0.5-0.9-0.9c-0.2-0.4-0.3-0.9-0.3-1.7c0-1.2,0.3-2,0.9-2.4c0.6-0.4,1.9-0.6,3.9-0.6c1.6,0,2.6,0.2,3.2,0.6
			c0.6,0.4,0.8,1.1,0.8,2.1h-1.6v-0.1c0-0.5-0.2-0.8-0.6-1c-0.4-0.2-1.2-0.3-2.4-0.3c-1.2,0-1.9,0.1-2.2,0.3
			c-0.3,0.2-0.5,0.7-0.5,1.4c0,0.4,0,0.7,0.1,0.9c0.1,0.2,0.2,0.3,0.3,0.4c0.3,0.2,1,0.3,2.1,0.3c0.3,0,0.5,0,0.6,0
			c0.9,0,1.6,0.1,2.1,0.1c0.5,0.1,0.9,0.1,1.1,0.2c0.5,0.2,0.8,0.5,1,0.9c0.2,0.4,0.3,1,0.3,1.8c0,0.8-0.1,1.4-0.3,1.8
			c-0.2,0.4-0.5,0.8-1,1.1c-0.2,0.1-0.6,0.3-1.1,0.3c-0.5,0.1-1.2,0.1-2.2,0.1c-1.9,0-3.1-0.2-3.7-0.7c-0.6-0.4-0.9-1.2-0.9-2.4
			V77.6z"/>
	</g>
</g>
</svg>
